HIERARCHY
ROOT pelvis
{
	OFFSET 0.000000 0.748829 -0.000000
	CHANNELS 6 Xposition Yposition Zposition Xrotation Yrotation Zrotation
	JOINT spine
	{
		OFFSET 0.000000 0.000000 0.000000
		CHANNELS 6 Xposition Yposition Zposition Xrotation Yrotation Zrotation
		JOINT spine.001
		{
			OFFSET 0.000000 0.242547 0.012711
			CHANNELS 3 Xrotation Yrotation Zrotation
			JOINT neck
			{
				OFFSET 0.000000 0.241069 -0.029600
				CHANNELS 6 Xposition Yposition Zposition Xrotation Yrotation Zrotation
				JOINT face
				{
					OFFSET 0.000000 0.203504 -0.003552
					CHANNELS 6 Xposition Yposition Zposition Xrotation Yrotation Zrotation
					End Site
					{
						OFFSET 0.000000 -0.007358 0.039915
					}
				}
			}
			JOINT shoulder.L
			{
				OFFSET 0.000000 0.241069 -0.029600
				CHANNELS 6 Xposition Yposition Zposition Yrotation Xrotation Zrotation
				JOINT upper_arm.L
				{
					OFFSET 0.165745 0.000000 0.000000
					CHANNELS 6 Xposition Yposition Zposition Xrotation Yrotation Zrotation
					JOINT forearm.L
					{
						OFFSET 0.270234 0.000934 -0.000113
						CHANNELS 6 Xposition Yposition Zposition Xrotation Yrotation Zrotation
						End Site
						{
							OFFSET 0.221268 -0.001285 0.003759
						}
					}
				}
			}
			JOINT shoulder.R
			{
				OFFSET 0.000000 0.241069 -0.029600
				CHANNELS 6 Xposition Yposition Zposition Yrotation Xrotation Zrotation
				JOINT upper_arm.R
				{
					OFFSET -0.165745 0.000000 0.000000
					CHANNELS 6 Xposition Yposition Zposition Xrotation Yrotation Zrotation
					JOINT forearm.R
					{
						OFFSET -0.269488 0.000934 -0.000113
						CHANNELS 6 Xposition Yposition Zposition Xrotation Yrotation Zrotation
						End Site
						{
							OFFSET -0.227797 -0.001286 0.003873
						}
					}
				}
			}
		}
	}
	JOINT pelvis.L
	{
		OFFSET 0.000000 0.000000 0.000000
		CHANNELS 6 Xposition Yposition Zposition Yrotation Xrotation Zrotation
		End Site
		{
			OFFSET 0.099755 0.000000 0.000000
		}
	}
	JOINT pelvis.R
	{
		OFFSET 0.000000 0.000000 0.000000
		CHANNELS 6 Xposition Yposition Zposition Yrotation Xrotation Zrotation
		End Site
		{
			OFFSET -0.099755 0.000000 0.000000
		}
	}
	JOINT thigh.L
	{
		OFFSET 0.099755 0.000000 0.000000
		CHANNELS 6 Xposition Yposition Zposition Xrotation Yrotation Zrotation
		JOINT shin.L
		{
			OFFSET 0.019080 -0.364061 0.000000
			CHANNELS 6 Xposition Yposition Zposition Xrotation Yrotation Zrotation
			JOINT foot.L
			{
				OFFSET 0.016961 -0.323630 0.000000
				CHANNELS 6 Xposition Yposition Zposition Xrotation Yrotation Zrotation
				End Site
				{
					OFFSET 0.014846 -0.063564 0.151372
				}
			}
		}
	}
	JOINT thigh.R
	{
		OFFSET -0.099755 0.000000 0.000000
		CHANNELS 6 Xposition Yposition Zposition Xrotation Yrotation Zrotation
		JOINT shin.R
		{
			OFFSET -0.018152 -0.346363 0.000000
			CHANNELS 6 Xposition Yposition Zposition Xrotation Yrotation Zrotation
			JOINT foot.R
			{
				OFFSET -0.017218 -0.328535 0.000000
				CHANNELS 6 Xposition Yposition Zposition Xrotation Yrotation Zrotation
				End Site
				{
					OFFSET -0.015855 -0.067884 0.161660
				}
			}
		}
	}
}
MOTION
Frames: 10
Frame Time: 0.041667
-0.012680 -0.012519 0.024247 0.000001 -10.434940 0.000005 -0.000000 -0.000000 0.000000 -11.578012 -0.038417 0.248433 10.008683 2.857191 -0.351117 0.000000 0.241069 -0.029599 10.227109 2.096092 -0.367819 0.000000 0.203504 -0.003552 -0.633187 0.000003 0.000000 0.000000 0.241069 -0.029599 -0.125617 -0.001123 -1.022775 0.165745 -0.000000 0.000000 -3.521749 -4.241120 -79.170212 0.270234 0.000934 -0.000113 -1.288276 -17.171983 -8.818467 -0.000000 0.241069 -0.029599 -0.131807 -0.001237 -1.072968 -0.165745 -0.000000 -0.000000 -4.403076 5.092032 81.559897 -0.269488 0.000934 -0.000113 -0.855876 10.689234 10.338734 -0.000000 -0.000000 0.000000 0.000026 -0.000001 1.156535 -0.000000 0.000000 0.000000 -0.000000 0.000000 1.156536 0.099734 0.002014 -0.000000 10.043722 0.190938 -3.827320 0.019080 -0.364061 0.000000 -3.343249 -0.299591 4.238550 0.016961 -0.323630 0.000000 -7.337440 7.106910 4.251688 -0.099734 -0.002013 0.000000 6.750639 -0.079070 4.659380 -0.018152 -0.346363 0.000000 -2.595281 0.237348 -4.449426 -0.017218 -0.328535 0.000000 -6.758952 -1.742906 -1.534191 
-0.012766 -0.012425 0.024206 0.000001 -10.403240 0.000005 -0.000000 -0.000000 0.000000 -11.577470 -0.038101 0.246400 10.008433 2.813535 -0.345750 0.000000 0.241069 -0.029600 10.239089 2.100778 -0.398334 0.000000 0.203504 -0.003552 -0.646817 0.000001 0.000000 -0.000000 0.241069 -0.029599 -0.125993 -0.001128 -1.025995 0.165745 0.000000 0.000000 -3.511193 -4.228646 -79.165745 0.270234 0.000934 -0.000113 -1.285305 -17.111328 -8.834797 -0.000000 0.241069 -0.029599 -0.132180 -0.001242 -1.076188 -0.165745 -0.000000 -0.000000 -4.425039 5.117012 81.566706 -0.269488 0.000934 -0.000113 -0.857900 10.678515 10.378379 0.000000 0.000000 0.000000 -0.000015 0.000000 1.159480 0.000000 0.000000 0.000000 -0.000003 0.000000 1.159480 0.099734 0.002019 0.000000 10.026032 0.192183 -3.809283 0.019080 -0.364061 0.000000 -3.330629 -0.298062 4.224814 0.016961 -0.323630 0.000000 -7.320678 7.079944 4.235417 -0.099734 -0.002018 0.000000 6.747363 -0.078220 4.673104 -0.018152 -0.346363 0.000000 -2.585101 0.236636 -4.458873 -0.017218 -0.328535 0.000000 -6.776108 -1.757295 -1.543333 
-0.012855 -0.012315 0.024140 0.000001 -10.373881 0.000005 0.000000 -0.000000 0.000000 -11.572954 -0.037653 0.243626 10.008198 2.769994 -0.340395 -0.000000 0.241069 -0.029600 10.243077 2.106594 -0.428293 -0.000000 0.203504 -0.003552 -0.658093 -0.000002 -0.000000 -0.000000 0.241069 -0.029600 -0.126383 -0.001139 -1.029590 0.165745 0.000000 0.000000 -3.495348 -4.209799 -79.160328 0.270234 0.000934 -0.000113 -1.284090 -17.063172 -8.856285 -0.000000 0.241069 -0.029600 -0.132584 -0.001254 -1.079784 -0.165745 0.000000 -0.000000 -4.446452 5.141121 81.576624 -0.269488 0.000934 -0.000113 -0.859592 10.668000 10.413579 0.000000 0.000000 0.000000 -0.000020 0.000000 1.169445 0.000000 0.000000 0.000000 -0.000001 0.000000 1.169479 0.099734 0.002036 -0.000000 10.001401 0.193467 -3.789125 0.019080 -0.364061 0.000000 -3.309027 -0.295658 4.208783 0.016961 -0.323630 0.000000 -7.300437 7.053114 4.218576 -0.099734 -0.002036 0.000000 6.739109 -0.077211 4.688692 -0.018152 -0.346363 0.000000 -2.570090 0.235549 -4.471733 -0.017218 -0.328535 0.000000 -6.792115 -1.770061 -1.551526 
-0.012930 -0.012212 0.024083 0.000001 -10.353962 0.000005 -0.000000 0.000000 0.000000 -11.567911 -0.037461 0.242413 10.008079 2.744521 -0.337238 -0.000000 0.241069 -0.029600 10.245042 2.104313 -0.452115 0.000000 0.203504 -0.003552 -0.667061 0.000001 -0.000000 -0.000000 0.241069 -0.029600 -0.126321 -0.001132 -1.028594 0.165745 -0.000000 0.000000 -3.475875 -4.186479 -79.154980 0.270234 0.000934 -0.000113 -1.285574 -17.038390 -8.883184 0.000000 0.241070 -0.029600 -0.132472 -0.001243 -1.078787 -0.165745 0.000000 -0.000000 -4.460884 5.156853 81.588857 -0.269488 0.000934 -0.000113 -0.859310 10.655867 10.425328 -0.000000 -0.000000 0.000000 0.000020 -0.000000 1.183621 -0.000000 -0.000000 0.000000 0.000003 -0.000000 1.183621 0.099733 0.002061 -0.000000 9.979847 0.194411 -3.773561 0.019080 -0.364061 0.000000 -3.291484 -0.293723 4.196401 0.016961 -0.323630 0.000000 -7.275726 7.035634 4.205569 -0.099733 -0.002061 -0.000000 6.729911 -0.076298 4.702295 -0.018152 -0.346363 0.000000 -2.555499 0.234445 -4.481811 -0.017218 -0.328535 0.000000 -6.808154 -1.778567 -1.557669 
-0.012989 -0.012148 0.024046 0.000001 -10.343401 0.000005 0.000000 -0.000000 0.000000 -11.564976 -0.037606 0.243409 10.007992 2.739904 -0.336690 -0.000000 0.241069 -0.029600 10.252049 2.090769 -0.469577 -0.000000 0.203504 -0.003552 -0.675512 0.000001 -0.000000 -0.000000 0.241069 -0.029600 -0.125370 -0.001120 -1.020774 0.165745 -0.000000 0.000000 -3.454923 -4.161240 -79.150923 0.270234 0.000934 -0.000113 -1.289889 -17.039799 -8.914460 -0.000000 0.241069 -0.029600 -0.131527 -0.001230 -1.070966 -0.165745 -0.000000 -0.000000 -4.468944 5.164925 81.602961 -0.269488 0.000934 -0.000113 -0.856208 10.638060 10.407772 -0.000000 -0.000000 0.000000 0.000026 -0.000001 1.194818 0.000000 0.000000 0.000000 -0.000003 0.000000 1.194818 0.099733 0.002080 0.000000 9.968113 0.195007 -3.764110 0.019080 -0.364061 0.000000 -3.289214 -0.293299 4.188712 0.016961 -0.323630 0.000000 -7.245479 7.029390 4.197102 -0.099733 -0.002080 0.000000 6.722674 -0.075635 4.712193 -0.018152 -0.346363 0.000000 -2.544424 0.233518 -4.485623 -0.017218 -0.328535 0.000000 -6.826749 -1.783245 -1.562234 
-0.013050 -0.012121 0.024001 0.000001 -10.334343 0.000005 0.000000 -0.000000 0.000000 -11.559479 -0.037435 0.242377 10.007982 2.728864 -0.335341 0.000000 0.241069 -0.029600 10.252897 2.078761 -0.483181 -0.000000 0.203504 -0.003552 -0.684803 0.000001 0.000000 0.000000 0.241069 -0.029600 -0.124962 -0.001110 -1.017366 0.165745 0.000000 -0.000000 -3.433989 -4.136506 -79.140780 0.270234 0.000934 -0.000113 -1.295176 -17.050292 -8.947160 0.000000 0.241069 -0.029600 -0.131097 -0.001221 -1.067599 -0.165745 -0.000000 -0.000000 -4.475186 5.170843 81.617837 -0.269488 0.000934 -0.000113 -0.854386 10.629449 10.394967 0.000000 0.000000 -0.000000 -0.000020 0.000000 1.197113 -0.000000 0.000000 -0.000000 0.000001 -0.000000 1.197112 0.099733 0.002084 -0.000000 9.958371 0.195580 -3.755320 0.019080 -0.364061 0.000000 -3.288739 -0.293036 4.180966 0.016961 -0.323630 0.000000 -7.220772 7.024406 4.190230 -0.099733 -0.002084 0.000000 6.715107 -0.074935 4.722625 -0.018152 -0.346363 0.000000 -2.533913 0.232624 -4.489027 -0.017218 -0.328535 0.000000 -6.845569 -1.787347 -1.566547 
-0.013138 -0.012097 0.023896 0.000001 -10.316724 0.000005 0.000000 -0.000000 0.000000 -11.540996 -0.035949 0.233036 10.007668 2.669622 -0.328018 -0.000000 0.241069 -0.029600 10.222960 2.094682 -0.494428 -0.000000 0.203504 -0.003552 -0.696339 0.000000 -0.000000 -0.000000 0.241069 -0.029600 -0.127289 -0.001152 -1.036648 0.165745 -0.000000 -0.000000 -3.416898 -4.117905 -79.111540 0.270234 0.000934 -0.000113 -1.298298 -17.040583 -8.976671 0.000000 0.241069 -0.029600 -0.133422 -0.001264 -1.086840 -0.165745 0.000000 -0.000000 -4.485855 5.182042 81.631115 -0.269488 0.000934 -0.000113 -0.860295 10.655069 10.439222 -0.000000 -0.000000 0.000000 0.000026 -0.000001 1.188209 0.000000 0.000000 0.000000 -0.000001 0.000000 1.188209 0.099733 0.002069 -0.000000 9.932671 0.196401 -3.740089 0.019080 -0.364061 0.000000 -3.257973 -0.289924 4.168286 0.016961 -0.323630 0.000000 -7.222375 7.005969 4.181451 -0.099733 -0.002069 0.000000 6.701001 -0.073760 4.740128 -0.018152 -0.346363 0.000000 -2.517215 0.231364 -4.501993 -0.017218 -0.328535 0.000000 -6.857255 -1.797582 -1.572998 
-0.013253 -0.012057 0.023716 0.000001 -10.285619 0.000005 0.000000 -0.000000 0.000000 -11.506868 -0.033047 0.214597 10.006931 2.550396 -0.313360 -0.000000 0.241069 -0.029600 10.158376 2.150793 -0.503439 0.000000 0.203504 -0.003552 -0.712933 -0.000005 -0.000000 -0.000000 0.241069 -0.029599 -0.132727 -0.001253 -1.080828 0.165745 0.000000 0.000000 -3.409121 -4.112003 -79.062213 0.270234 0.000934 -0.000113 -1.297491 -16.998907 -8.997617 -0.000000 0.241069 -0.029599 -0.138922 -0.001371 -1.131021 -0.165745 -0.000000 0.000000 -4.504702 5.203210 81.640356 -0.269488 0.000934 -0.000113 -0.874984 10.716824 10.550282 0.000000 0.000000 -0.000000 -0.000007 0.000000 1.170027 0.000000 0.000000 -0.000000 -0.000003 0.000000 1.169992 0.099734 0.002037 0.000000 9.881849 0.197506 -3.715692 0.019080 -0.364061 0.000000 -3.180703 -0.282503 4.148684 0.016961 -0.323630 0.000000 -7.258650 6.968334 4.169459 -0.099734 -0.002037 -0.000000 6.678377 -0.072034 4.765389 -0.018152 -0.346363 0.000000 -2.492470 0.229634 -4.526272 -0.017218 -0.328535 0.000000 -6.855040 -1.820120 -1.583777 
-0.013372 -0.012006 0.023506 0.000001 -10.245518 0.000005 0.000000 -0.000000 0.000000 -11.468899 -0.029772 0.193766 10.006193 2.408582 -0.295914 -0.000000 0.241069 -0.029600 10.089989 2.229385 -0.509876 -0.000000 0.203504 -0.003552 -0.736816 -0.000000 0.000000 0.000000 0.241069 -0.029600 -0.138666 -0.001370 -1.129115 0.165745 0.000000 0.000000 -3.410732 -4.117795 -79.010638 0.270234 0.000934 -0.000113 -1.294202 -16.950124 -9.004746 0.000000 0.241069 -0.029600 -0.144834 -0.001496 -1.179349 -0.165745 -0.000000 -0.000000 -4.526909 5.228794 81.643717 -0.269488 0.000934 -0.000113 -0.892188 10.789366 10.678081 -0.000000 0.000000 0.000000 0.000052 -0.000000 1.149276 0.000000 0.000000 0.000000 -0.000003 0.000000 1.149276 0.099735 0.002001 0.000000 9.816029 0.198858 -3.684520 0.019080 -0.364061 0.000000 -3.075448 -0.272400 4.120847 0.016961 -0.323630 0.000000 -7.313818 6.921881 4.156476 -0.099735 -0.002001 -0.000000 6.653782 -0.070230 4.791807 -0.018152 -0.346363 0.000000 -2.467281 0.227896 -4.553250 -0.017218 -0.328535 0.000000 -6.839904 -1.852751 -1.597892 
-0.013471 -0.011956 0.023330 0.000001 -10.207193 0.000005 0.000000 -0.000000 0.000000 -11.440908 -0.027329 0.178148 10.005584 2.292578 -0.281653 0.000000 0.241069 -0.029600 10.050854 2.308875 -0.512153 -0.000000 0.203504 -0.003552 -0.765762 0.000000 0.000000 0.000000 0.241069 -0.029600 -0.142529 -0.001439 -1.160705 0.165745 0.000000 0.000000 -3.414249 -4.124739 -78.975155 0.270234 0.000934 -0.000113 -1.291301 -16.932538 -8.994492 0.000000 0.241069 -0.029600 -0.148708 -0.001571 -1.210898 -0.165745 -0.000000 0.000000 -4.540816 5.245131 81.641340 -0.269488 0.000934 -0.000113 -0.905778 10.853063 10.769385 -0.000000 -0.000000 -0.000000 0.000066 -0.000000 1.135134 -0.000000 -0.000000 -0.000000 0.000003 -0.000000 1.135100 0.099735 0.001976 0.000000 9.753070 0.200438 -3.651046 0.019080 -0.364061 0.000000 -2.972497 -0.262286 4.083209 0.016961 -0.323630 0.000000 -7.365047 6.882852 4.146381 -0.099735 -0.001976 0.000000 6.635370 -0.068819 4.812788 -0.018152 -0.346363 0.000000 -2.450537 0.226805 -4.574377 -0.017218 -0.328535 0.000000 -6.821502 -1.884497 -1.611173 
